<?xml version="1.0" standalone="no"?>
<!DOCTYPE svg PUBLIC "-//W3C//DTD SVG 20010904//EN"
 "http://www.w3.org/TR/2001/REC-SVG-20010904/DTD/svg10.dtd">
<svg version="1.0" xmlns="http://www.w3.org/2000/svg"
 width="512.000000pt" height="512.000000pt" viewBox="0 0 512.000000 512.000000"
 preserveAspectRatio="xMidYMid meet">

<g transform="translate(0.000000,512.000000) scale(0.100000,-0.100000)"
fill="#000000" stroke="none">
<path d="M2321 5079 c-655 -50 -1250 -300 -1667 -701 -264 -254 -427 -525
-509 -850 -30 -118 -32 -190 -5 -262 l21 -54 -22 -64 c-17 -50 -20 -80 -17
-143 7 -131 68 -238 181 -313 l37 -25 0 -133 0 -134 -57 -27 c-86 -41 -183
-138 -226 -226 -94 -190 -68 -420 62 -569 l40 -45 -20 -62 c-36 -118 -19 -245
47 -341 l34 -50 0 -210 c0 -256 12 -326 78 -460 37 -75 62 -111 122 -171 124
-125 255 -189 427 -209 120 -14 3306 -14 3426 0 172 20 303 84 427 209 60 60
85 96 122 171 65 131 78 206 78 438 l0 189 26 24 c72 66 124 187 124 289 0 61
-22 149 -47 187 -14 21 -14 25 11 58 116 152 136 376 50 551 -44 89 -141 186
-227 227 l-57 27 0 122 0 123 54 28 c70 37 150 121 184 194 23 51 27 71 27
158 0 94 -2 105 -33 168 -30 59 -32 72 -23 99 26 73 0 228 -69 416 -176 482
-638 924 -1205 1155 -440 179 -916 253 -1394 216z m598 -214 c633 -79 1194
-359 1538 -769 165 -197 264 -385 323 -615 28 -112 27 -134 -14 -179 l-34 -37
-2172 0 -2172 0 -34 37 c-41 45 -42 67 -14 179 59 230 158 418 323 615 379
452 1015 741 1732 788 106 7 402 -4 524 -19z m1927 -1801 c19 -77 -29 -171
-109 -212 -60 -31 -129 -33 -217 -5 -90 29 -173 36 -253 23 -98 -15 -164 -43
-267 -112 -179 -119 -298 -118 -484 2 -113 73 -171 97 -272 111 -148 20 -271
-14 -430 -121 -163 -108 -293 -108 -460 2 -117 76 -188 106 -281 119 -151 20
-272 -12 -423 -113 -182 -120 -297 -120 -486 3 -135 87 -206 111 -334 111 -71
1 -114 -5 -170 -22 -101 -31 -174 -30 -230 1 -62 34 -102 95 -108 161 l-4 53
2210 -3 c1871 -2 2216 0 2248 12 56 20 63 19 70 -10z m-3273 -894 l62 -59
-107 -108 -108 -108 -160 160 c-88 88 -160 163 -160 167 0 5 93 8 206 8 l206
0 61 -60z m1442 -340 c-220 -220 -404 -400 -410 -400 -11 0 -795 781 -795 792
0 5 361 8 802 8 l803 0 -400 -400z m1835 -478 c0 -42 -24 -100 -58 -136 -62
-66 -155 -82 -272 -46 -134 42 -287 36 -394 -15 -28 -13 -89 -49 -134 -79 -96
-64 -140 -79 -232 -79 -87 0 -134 15 -211 65 -167 108 -215 127 -344 135 -141
8 -253 -25 -374 -112 -90 -65 -155 -88 -246 -88 -92 0 -147 20 -252 91 -117
79 -212 112 -329 112 -134 0 -217 -28 -362 -124 -96 -64 -140 -79 -232 -79
-87 0 -134 15 -211 65 -184 119 -224 133 -374 132 -84 -1 -125 -6 -175 -22
-91 -30 -160 -29 -221 4 -67 37 -102 90 -106 162 -5 77 3 87 53 71 31 -10 247
-14 1009 -17 l970 -3 106 -104 c97 -96 109 -105 144 -105 35 0 47 9 144 105
l106 104 925 3 c904 3 926 4 985 24 l60 21 12 -26 c7 -14 12 -41 13 -59z
m-3893 -382 c23 -10 69 -37 103 -60 230 -156 473 -159 685 -8 116 83 203 107
316 88 56 -10 84 -22 161 -72 51 -33 116 -71 145 -84 110 -49 277 -56 395 -15
59 20 69 26 186 103 88 58 134 72 233 71 86 -1 132 -17 229 -83 231 -157 481
-159 690 -5 125 92 248 113 385 66 46 -16 94 -24 142 -25 l73 -1 0 -134 c0
-90 -5 -156 -16 -200 -44 -177 -165 -305 -344 -363 -52 -17 -155 -18 -1780
-18 -1625 0 -1728 1 -1780 18 -179 58 -300 186 -344 363 -11 44 -16 110 -16
208 l0 142 23 -7 c42 -14 171 -6 237 14 36 11 76 23 90 25 43 8 143 -4 187
-23z"/>
<path d="M2457 4699 c-22 -13 -47 -61 -47 -93 0 -14 13 -40 29 -58 24 -27 36
-33 71 -33 35 0 47 6 71 33 40 44 40 93 0 133 -23 22 -39 29 -68 29 -21 0 -46
-5 -56 -11z"/>
<path d="M2900 4623 c-20 -18 -33 -41 -37 -65 -5 -33 -2 -41 28 -71 28 -28 46
-36 104 -46 117 -20 299 -70 418 -115 422 -161 730 -415 893 -738 24 -47 54
-94 66 -102 62 -44 158 7 158 84 0 32 -65 161 -130 258 -202 300 -528 543
-925 690 -141 52 -228 77 -373 108 -149 30 -165 30 -202 -3z"/>
<path d="M1509 4181 c-48 -49 -38 -125 21 -156 43 -22 76 -18 112 14 27 24 33
36 33 71 0 35 -6 47 -33 71 -44 40 -93 40 -133 0z"/>
<path d="M2283 4175 c-32 -32 -35 -40 -30 -73 7 -44 55 -92 93 -92 91 0 138
107 75 171 -43 43 -92 40 -138 -6z"/>
<path d="M1048 3825 c-85 -47 -51 -185 45 -185 43 0 92 38 100 77 6 31 -12 81
-36 101 -24 20 -79 24 -109 7z"/>
<path d="M2054 3830 c-33 -13 -54 -50 -54 -96 0 -82 94 -123 158 -69 86 72 1
207 -104 165z"/>
<path d="M2738 3741 c-27 -24 -33 -36 -33 -71 0 -35 6 -47 33 -71 36 -32 69
-36 112 -14 60 31 70 109 19 156 -42 39 -87 39 -131 0z"/>
</g>
</svg>
