<?xml version="1.0" standalone="no"?>
<!DOCTYPE svg PUBLIC "-//W3C//DTD SVG 20010904//EN"
 "http://www.w3.org/TR/2001/REC-SVG-20010904/DTD/svg10.dtd">
<svg version="1.0" xmlns="http://www.w3.org/2000/svg"
 width="512.000000pt" height="512.000000pt" viewBox="0 0 512.000000 512.000000"
 preserveAspectRatio="xMidYMid meet">

<g transform="translate(0.000000,512.000000) scale(0.100000,-0.100000)"
fill="#000000" stroke="none">
<path d="M3442 4550 c-71 -36 -115 -82 -151 -160 l-26 -55 -3 -1527 -2 -1528
-60 0 -59 0 -3 1202 -3 1203 -26 55 c-36 78 -80 124 -151 160 l-61 30 -337 0
-337 0 -61 -30 c-71 -36 -115 -82 -151 -160 l-26 -55 -3 -1202 -3 -1203 -59 0
-59 0 -3 868 -3 867 -26 55 c-36 78 -80 124 -151 160 l-61 30 -337 0 -337 0
-61 -30 c-71 -36 -115 -82 -151 -160 -26 -54 -26 -57 -26 -296 0 -224 1 -243
19 -263 11 -12 27 -21 38 -21 16 0 18 -9 18 -82 -1 -82 -1 -83 -32 -103 -18
-11 -35 -31 -39 -45 -4 -14 -7 -240 -8 -502 l-1 -477 -217 -3 c-216 -3 -219
-3 -270 -30 -101 -54 -166 -132 -197 -237 -21 -73 -20 -136 4 -212 36 -114
112 -194 229 -241 56 -23 59 -23 558 -23 489 0 503 1 521 20 11 11 23 33 26
48 5 23 1 34 -23 57 l-29 30 -489 0 c-550 0 -533 -2 -604 77 -98 108 -59 283
76 344 38 18 134 19 2273 19 1996 0 2237 -2 2270 -16 151 -63 183 -262 58
-372 -20 -17 -52 -36 -73 -41 -26 -8 -552 -11 -1636 -11 l-1599 0 -29 -30
c-24 -23 -28 -34 -23 -57 3 -15 15 -37 25 -48 19 -20 33 -20 1642 -20 l1622 0
56 23 c117 47 193 127 229 241 25 80 25 142 0 222 -36 114 -115 197 -226 239
-48 18 -78 20 -254 20 l-200 0 -2 1295 c-3 1279 -3 1295 -23 1314 -11 11 -32
23 -47 26 -22 6 -33 1 -58 -23 l-30 -30 0 -1286 0 -1286 -420 0 -420 0 0 1511
c0 1673 -5 1553 64 1602 30 21 39 22 344 25 304 3 314 2 351 -19 59 -33 75
-69 81 -183 5 -87 8 -100 29 -117 51 -42 114 -12 126 60 10 61 -4 170 -29 226
-32 72 -78 119 -148 155 l-61 30 -337 0 -337 0 -61 -30z m-542 -791 c21 -12
47 -38 59 -59 l21 -38 0 -1186 0 -1186 -420 0 -420 0 2 1198 3 1197 22 31 c44
62 56 64 392 64 291 0 305 -1 341 -21z"/>
</g>
</svg>
